<?xml version="1.0" encoding="utf-8"?>
<!-- Generator: Adobe Illustrator 21.0.2, SVG Export Plug-In . SVG Version: 6.00 Build 0)  -->
<svg version="1.1" id="Layer_1" xmlns="http://www.w3.org/2000/svg" xmlns:xlink="http://www.w3.org/1999/xlink" x="0px" y="0px"
	 viewBox="0 0 454.1 93.8" style="enable-background:new 0 0 454.1 93.8;" xml:space="preserve">
<style type="text/css">
	.st0{fill:#FFFFFF;}
	.st1{fill:#FF8686;}
</style>
<g>
	<path class="st0" d="M157.8,14.2h15l-11.9,45.4h-13.4l-7.8-25.8l-7.9,25.8h-13.4l-11.9-45.4h15l5,28.6l8.1-28.6h10.1l8.1,28.6
		L157.8,14.2z"/>
	<path class="st0" d="M192.7,59.5l-1.8-5.6H180l-1.7,5.6h-8.8l11.7-31.7h10.6l10.7,31.7H192.7z M182.1,47.3h6.7l-3.4-10.5
		L182.1,47.3z"/>
	<path class="st0" d="M225.7,27.8h8.7v31.7h-6.7l-13-16.2v16.2H206V27.8h7.7l11.9,15.6V27.8z"/>
	<path class="st0" d="M240.5,27.8h13.9c5.5,0,9.6,1.3,12.2,4c2.6,2.6,3.9,6.6,3.9,11.9c0,5.3-1.3,9.2-3.9,11.9
		c-2.6,2.7-6.6,4-12.1,4h-13.9V27.8z M253.3,52.4c2.4,0,4.3-0.7,5.5-2.1s1.9-3.6,1.9-6.6c0-5.8-2.5-8.8-7.5-8.8H250v17.5H253.3z"/>
	<path class="st0" d="M275.3,59.5V27.8h22.5v7.1h-12.9v5.1h11.1v7.1h-11.1v5.2h13v7.1H275.3z"/>
	<path class="st0" d="M322.1,59.5l-5.5-10.1h-3.3v10.1h-9.5V27.8h16.5c3.9,0,6.9,0.9,9.1,2.6c2.2,1.7,3.3,4.3,3.3,7.8
		c0,1.9-0.5,3.8-1.6,5.6c-1.1,1.8-2.6,3-4.5,3.7l7.9,12H322.1z M321.3,41.7c0.6-0.6,0.9-1.7,0.9-3.1c0-1.2-0.3-2.1-0.9-2.8
		c-0.6-0.6-1.3-1-2.2-1h-5.8v7.8h5.8C320,42.7,320.7,42.4,321.3,41.7z"/>
	<path class="st0" d="M339.1,59.5V27.8h9.6v24.6h12.7v7.2H339.1z"/>
	<path class="st0" d="M369.9,57.7c-2.5-2-3.8-5.2-3.8-9.6V27.8h10v19.8c0,2.1,0.4,3.6,1.2,4.5c0.8,1,2.1,1.5,3.8,1.5
		c1.6,0,2.8-0.5,3.7-1.5s1.3-2.5,1.3-4.5V27.8h9v20.4c0,4.3-1.2,7.4-3.7,9.5c-2.4,2.1-5.7,3.1-9.9,3.1
		C376.3,60.7,372.4,59.7,369.9,57.7z"/>
	<path class="st0" d="M406,59.8c-1.9-0.3-3.6-0.8-5.1-1.5v-8.9c1.6,1.2,3.3,2.1,5.1,2.7c1.9,0.6,3.6,0.9,5.1,0.9
		c1.1,0,2-0.2,2.6-0.5c0.6-0.4,0.9-1,0.9-1.9c0-0.7-0.4-1.2-1.2-1.6c-0.8-0.4-2.1-0.9-4-1.5c-0.8-0.2-1.7-0.5-2.8-0.9
		c-2.1-0.7-3.7-1.7-4.9-3s-1.8-3.2-1.8-5.7c0-2.1,0.5-3.9,1.5-5.6c1-1.6,2.5-3,4.5-3.9s4.4-1.5,7.3-1.5c1.9,0,3.6,0.2,5.1,0.5
		c1.5,0.3,2.9,0.8,4.4,1.6v9c-1.2-1.1-2.7-2-4.5-2.8c-1.8-0.8-3.4-1.2-4.8-1.2c-1.1,0-2,0.2-2.7,0.6c-0.7,0.4-1.1,1.1-1.1,2
		c0,0.9,0.4,1.5,1.1,1.9c0.8,0.4,2,0.9,3.8,1.4c0.2,0,0.5,0.1,1,0.2c3,0.9,5.3,1.9,6.7,3.3c1.5,1.3,2.2,3.3,2.2,5.9
		c0,2.1-0.5,4-1.5,5.6c-1,1.6-2.4,2.9-4.2,3.8c-1.8,0.9-3.8,1.4-6.1,1.4C410.2,60.2,407.9,60.1,406,59.8z"/>
	<path class="st0" d="M435.3,59.5V34.9h-7.9v-7.1h25.6v7.1h-8.1v24.6H435.3z"/>
</g>
<g>
	<path class="st1" d="M103.2,53.5l0.1-0.8c0.1-1.3-1.3-2.1-2.3-1.3l0,0c-1,0.7-2,1.4-3,2c-1,0.6-2.1,1.2-3.1,1.7c-1,0.5-2,0.9-3,1.3
		c-0.9,0.3-1.8,0.6-2.6,0.8s-1.4,0.2-2,0.2c-0.8-0.1-1.5-0.2-2.2-0.6c-0.7-0.3-1.1-0.8-1.6-1.4c-0.4-0.6-0.8-1.4-0.9-2.3
		c-0.2-0.9-0.2-2.1-0.1-3.3c0-0.5,0.1-1.1,0.2-1.7c0-0.6,0.1-1.3,0.2-1.9c0-0.6,0.2-1.3,0.2-2c0-0.6,0.2-1.3,0.2-2
		c0.2-1.5,0.4-2.9,0.6-4.4c0.6-0.7,1.4-1.5,2.2-2.4c0.8-0.9,1.6-1.8,2.4-2.7l14.1,1c0.6,0,1.1-0.2,1.6-0.7s0.8-1.1,0.9-2.1
		c0.1-0.7,0-1.3-0.2-1.8c-0.2-0.5-0.5-0.7-1-0.8c-0.4-0.1-0.9-0.1-1.5-0.2c-0.6,0-1.3-0.2-2-0.2c-0.7-0.1-1.5-0.1-2.3-0.3
		c-0.8-0.1-1.5-0.2-2.2-0.3c-0.6,0-1.3-0.2-1.8-0.2c-0.5,0-0.8-0.1-1.1-0.1c1-1.3,1.9-2.7,2.8-4c0.9-1.3,1.7-2.7,2.4-4
		c0.7-1.3,1.3-2.6,1.7-3.9c0.5-1.3,0.7-2.5,0.8-3.7c0.1-1.4,0-2.8-0.2-4.1c-0.3-1.3-0.6-2.5-1.1-3.5c-0.5-1-1.2-1.8-2-2.5
		c-0.6-0.5-1.3-0.8-2.1-1c-1.9-0.4-3.8,0.2-5.6,1.7C88,3.2,86.6,5,85.1,7.3s-2.8,5-4,8c-1.2,3-2.3,6.1-3.2,9.4c-0.2,0-0.7,0-1.4,0
		c-0.6,0-1.3-0.1-2.2-0.2s-1.7-0.2-2.6-0.2c-0.9,0-1.7,0-2.5,0s-1.4,0.2-1.9,0.4c-0.5,0.2-0.8,0.6-0.8,1.1c0,0.2,0,0.5,0,0.8
		c0,0.3,0,0.6,0.2,0.9c0.1,0.3,0.3,0.6,0.6,0.8c0.3,0.2,0.7,0.4,1.3,0.5c1.3,0.2,2.3,0.4,3,0.6s1.2,0.3,1.7,0.4
		c0.4,0.1,0.9,0.2,1.2,0.4c0.4,0.1,1,0.3,1.7,0.4c-0.4,1.6-0.6,3.3-0.9,4.9s-0.5,3.2-0.5,4.7c-0.2,2.8-0.2,5.5-0.2,8l-0.2-0.3
		c-1,0.9-2.3,1.7-3.7,2.7c-1.5,0.9-3,1.7-4.6,2.5c-1.6,0.8-3.2,1.4-4.9,1.8c-1.7,0.4-3.2,0.6-4.7,0.6c-0.5,0-0.9-0.1-1.3-0.2
		s-0.8-0.4-1.1-0.6c-0.4-0.3-0.7-0.6-1-1.1c-0.3-0.5-0.7-1.1-1-1.8c2.2-0.5,4.2-1.1,6.1-2c1.9-0.9,3.5-2,5-3.2
		c1.4-1.3,2.6-2.6,3.4-4c0.8-1.4,1.3-2.9,1.5-4.5c0.1-1.4-0.1-2.7-0.4-3.8c-0.4-1.2-1-2.1-1.8-3c-0.8-0.9-1.8-1.6-2.9-2.1
		c-1.1-0.5-2.4-0.9-3.8-0.9c-1.7-0.1-3.2,0-4.6,0.6s-2.7,1.2-3.9,2.1c-1.2,0.9-2.3,2-3.2,3.3c-1,1.3-1.7,2.6-2.4,4
		c-0.6,1.4-1.2,2.9-1.5,4.4c-0.4,1.5-0.6,2.9-0.7,4.3c-0.1,1.1,0,2.2,0,3.2c-0.3,0.2-0.5,0.5-0.7,0.7c-1.4,1.5-2.7,2.7-3.8,3.6
		c-1.1,0.9-2.1,1.7-3,2.2c-0.9,0.6-1.7,1-2.5,1.3c0.9-3.8,1.8-7.4,2.6-10.7c0.3-1.4,0.7-2.8,0.9-4.3c0.3-1.4,0.6-2.8,0.9-4.1
		c0.2-1.3,0.5-2.5,0.7-3.5c0.2-1,0.3-1.9,0.3-2.5c0.1-0.8,0-1.4-0.1-1.8s-0.3-0.8-0.5-1.1c-0.2-0.3-0.5-0.5-0.8-0.5
		c-0.3-0.1-0.6-0.2-1-0.2c-0.3-0.1-0.6,0-0.9,0s-0.6,0-0.9,0c-0.3-0.1-0.6,0-0.9-0.1c-0.3-0.1-0.6-0.2-0.9-0.3
		c-0.3-0.1-0.5-0.4-0.7-0.6c-0.2-0.2-0.3-0.6-0.6-0.9c-0.2-0.3-0.4-0.6-0.7-0.8C30,26.1,29.6,26,29,25.9c-1.7-0.1-3.3,0.1-5,0.7
		c-1.7,0.6-3.3,1.5-4.9,2.5c-1.6,1.1-3,2.5-4.3,4c-1.4,1.5-2.5,3.2-3.6,4.9c-1,1.7-1.9,3.6-2.5,5.5c-0.6,1.9-1.1,3.8-1.2,5.6
		c-0.2,1.6,0,3.1,0.5,4.4c0.5,1.3,1,2.4,1.8,3.4c0.8,0.9,1.7,1.7,2.8,2.3c1,0.6,2.2,0.9,3.3,1c1.3,0.1,2.8-0.1,4.3-0.8
		c1.5-0.6,2.9-1.5,4.4-2.5l-1.3,3.3c-1.9,1.3-3.7,2.7-5.5,4.2c-1.9,1.5-3.6,2.9-5.3,4.5c-1.7,1.5-3.3,3.1-4.7,4.6S5,76.6,3.8,78
		c-1.1,1.5-2,2.9-2.7,4.2c-0.7,1.3-1,2.5-1.1,3.7c-0.1,1.6,0,2.9,0.5,3.8c0.5,1,1.1,1.8,1.9,2.4C3.2,92.6,4,93,5,93.3
		c1,0.3,1.9,0.4,2.7,0.4c2.1,0.2,4,0,5.8-0.6c1.8-0.6,3.4-1.4,5-2.7c1.5-1.2,2.9-2.6,4.1-4.3c1.3-1.7,2.4-3.7,3.4-5.7
		c1-2.1,2-4.4,2.8-6.8c0.8-2.4,1.6-5,2.2-7.5c2.5-1.3,4.9-2.6,7-4c0.9-0.6,1.9-1.2,2.9-1.9c1-0.7,1.9-1.4,2.8-2.1
		c0.4-0.4,0.9-0.7,1.2-1.1c0.2,0.3,0.3,0.6,0.6,0.8c1,1.5,2.4,2.7,4.1,3.7c1.7,1,3.6,1.5,6,1.7c1.5,0.1,2.9,0,4.4-0.2
		c1.4-0.2,2.8-0.6,4.2-1c1.4-0.5,2.7-1,4-1.6c1.3-0.6,2.5-1.3,3.5-1.9c1.4-0.8,2.8-1.8,4.1-2.8c0.2,0.9,0.5,1.7,0.8,2.4
		c0.8,2.2,1.9,3.9,3.2,5.1c1.3,1.3,3,1.9,4.8,2c0.9,0.1,1.9,0,3.1-0.3c1.1-0.3,2.4-0.7,3.9-1.3c1.5-0.6,3.2-1.3,5.1-2.2
		c0.6-0.2,1.3-0.6,1.9-0.9C101,59.5,103,56.7,103.2,53.5z M20.1,73.4c-0.4,1.2-1,2.5-1.6,3.7c-0.6,1.3-1.3,2.5-2,3.7
		C15.8,82,15,83,14.2,84c-0.8,0.9-1.7,1.6-2.7,2.2c-1,0.5-1.9,0.8-3,0.7c-1,0-1.4-0.6-1.4-1.5c0-0.6,0.3-1.2,0.7-2.1
		c0.4-0.9,1-1.7,1.7-2.6c0.7-1,1.5-1.9,2.4-2.9c0.9-1,1.9-2,2.9-2.9c1-1,2.1-1.8,3.1-2.6c1.1-0.8,2.1-1.5,3-2
		C20.9,71.1,20.5,72.2,20.1,73.4z M26.4,43.6c-0.1,0.8-0.5,1.7-0.8,2.9c-0.4,1.1-0.9,2.3-1.6,3.3s-1.3,2-2.1,2.7
		c-0.8,0.7-1.6,1.1-2.6,1c-0.6,0-1-0.2-1.3-0.5c-0.4-0.3-0.6-0.7-0.8-1.2c-0.2-0.5-0.3-1-0.4-1.6c0-0.6-0.1-1.2,0-1.8
		c0.1-1.1,0.3-2.2,0.7-3.4c0.4-1.2,0.9-2.4,1.5-3.5c0.6-1.2,1.3-2.3,2.1-3.4c0.8-1.1,1.7-2,2.5-2.8c0.9-0.8,1.8-1.4,2.9-1.8
		c1-0.5,2-0.6,3-0.5L26.4,43.6z M51.8,45.7c0-0.6,0.2-1.2,0.2-1.9c0.1-0.8,0.3-1.5,0.5-2.3c0.2-0.8,0.5-1.6,0.9-2.4
		c0.4-0.8,0.8-1.4,1.4-2s1.2-1.1,2-1.4c0.8-0.4,1.7-0.5,2.7-0.4c0.6,0,1.1,0.4,1.4,1.2c0.4,0.8,0.5,1.7,0.4,2.7
		c-0.1,0.8-0.4,1.6-1.1,2.3c-0.7,0.8-1.5,1.5-2.4,2.1c-0.9,0.6-1.9,1.2-3,1.5C53.6,45.6,52.6,45.8,51.8,45.7z M84.6,25.7
		c0.6-2,1.2-3.9,1.9-6s1.4-3.9,2.1-5.7c0.7-1.7,1.4-3.1,2.2-4.1c0.7-1.1,1.5-1.6,2-1.6c0.5,0,0.8,0.2,1.1,0.3
		c0.3,0.2,0.4,0.4,0.5,0.7c0.1,0.3,0.2,0.6,0.2,1c0,0.4,0,0.7,0,0.9c-0.1,0.8-0.3,1.7-0.8,2.9c-0.5,1.2-1.1,2.5-1.9,3.8
		c-0.8,1.4-1.6,2.7-2.5,4.1c-0.9,1.4-1.8,2.7-2.6,3.9c-0.4-0.1-0.8-0.1-1.1-0.2C85.4,25.9,85,25.8,84.6,25.7z"/>
</g>
</svg>
