<?xml version="1.0" encoding="UTF-8"?>
<svg width="453px" height="89px" viewBox="0 0 453 89" version="1.1" xmlns="http://www.w3.org/2000/svg" xmlns:xlink="http://www.w3.org/1999/xlink">
    <!-- Generator: Sketch 46.1 (44463) - http://www.bohemiancoding.com/sketch -->
    <title>get-wanderflust-white-01</title>
    <desc>Created with Sketch.</desc>
    <defs></defs>
    <g id="Page-1" stroke="none" stroke-width="1" fill="none" fill-rule="evenodd">
        <g id="get-wanderflust-white-01" fill-rule="nonzero">
            <g id="Group" transform="translate(106.000000, 13.000000)" fill="#4D9097">
                <polygon id="Shape" fill-opacity="0.365149457" points="51.8 0.192363636 66.8 0.192363636 54.9 43.8589091 41.5 43.8589091 33.7 19.044 25.8 43.8589091 12.4 43.8589091 0.5 0.192363636 15.5 0.192363636 20.5 27.7003636 28.6 0.192363636 38.7 0.192363636 46.8 27.7003636"></polygon>
                <path d="M86.7,43.7627273 L84.9,38.3765455 L74,38.3765455 L72.3,43.7627273 L63.5,43.7627273 L75.2,13.2730909 L85.8,13.2730909 L96.5,43.7627273 L86.7,43.7627273 Z M76.1,32.0285455 L82.8,32.0285455 L79.4,21.9294545 L76.1,32.0285455 Z" id="Shape" fill-opacity="0.37"></path>
                <polygon id="Shape" fill-opacity="0.37" points="119.7 13.2730909 128.4 13.2730909 128.4 43.7627273 121.7 43.7627273 108.7 28.1812727 108.7 43.7627273 100 43.7627273 100 13.2730909 107.7 13.2730909 119.6 28.2774545 119.6 13.2730909"></polygon>
                <path d="M134.5,13.2730909 L148.4,13.2730909 C153.9,13.2730909 158,14.5234545 160.6,17.1203636 C163.2,19.6210909 164.5,23.4683636 164.5,28.566 C164.5,33.6636364 163.2,37.4147273 160.6,40.0116364 C158,42.6085455 154,43.8589091 148.5,43.8589091 L134.6,43.8589091 L134.6,13.2730909 L134.5,13.2730909 Z M147.3,36.9338182 C149.7,36.9338182 151.6,36.2605455 152.8,34.914 C154,33.5674545 154.7,31.4514545 154.7,28.566 C154.7,22.9874545 152.2,20.102 147.2,20.102 L144,20.102 L144,36.9338182 L147.3,36.9338182 L147.3,36.9338182 Z" id="Shape" fill-opacity="0.37"></path>
                <polygon id="Shape" fill-opacity="0.37" points="169.3 43.7627273 169.3 13.2730909 191.8 13.2730909 191.8 20.102 178.9 20.102 178.9 25.0072727 190 25.0072727 190 31.8361818 178.9 31.8361818 178.9 36.8376364 191.9 36.8376364 191.9 43.6665455 169.3 43.6665455"></polygon>
                <path d="M216.1,43.7627273 L210.6,34.0483636 L207.3,34.0483636 L207.3,43.7627273 L197.8,43.7627273 L197.8,13.2730909 L214.3,13.2730909 C218.2,13.2730909 221.2,14.1387273 223.4,15.7738182 C225.6,17.4089091 226.7,19.9096364 226.7,23.276 C226.7,25.1034545 226.2,26.9309091 225.1,28.6621818 C224,30.3934545 222.5,31.5476364 220.6,32.2209091 L228.5,43.7627273 L216.1,43.7627273 L216.1,43.7627273 Z M215.3,26.6423636 C215.9,26.0652727 216.2,25.0072727 216.2,23.6607273 C216.2,22.5065455 215.9,21.6409091 215.3,20.9676364 C214.7,20.3905455 214,20.0058182 213.1,20.0058182 L207.3,20.0058182 L207.3,27.508 L213.1,27.508 C214,27.6041818 214.7,27.3156364 215.3,26.6423636 Z" id="Shape" fill-opacity="0.37"></path>
                <polygon id="Shape" fill-opacity="0.37" points="233.1 43.7627273 233.1 13.2730909 242.7 13.2730909 242.7 36.9338182 255.4 36.9338182 255.4 43.8589091 233.1 43.8589091"></polygon>
                <path d="M263.9,42.0314545 C261.4,40.1078182 260.1,37.03 260.1,32.798 L260.1,13.2730909 L270.1,13.2730909 L270.1,32.3170909 C270.1,34.3369091 270.5,35.7796364 271.3,36.6452727 C272.1,37.6070909 273.4,38.088 275.1,38.088 C276.7,38.088 277.9,37.6070909 278.8,36.6452727 C279.7,35.6834545 280.1,34.2407273 280.1,32.3170909 L280.1,13.2730909 L289.1,13.2730909 L289.1,32.8941818 C289.1,37.03 287.9,40.0116364 285.4,42.0314545 C283,44.0512727 279.7,45.0130909 275.5,45.0130909 C270.3,44.9169091 266.4,43.9550909 263.9,42.0314545 Z" id="Shape" fill-opacity="0.37"></path>
                <path d="M300,44.0512727 C298.1,43.7627273 296.4,43.2818182 294.9,42.6085455 L294.9,34.0483636 C296.5,35.2025455 298.2,36.0681818 300,36.6452727 C301.9,37.2223636 303.6,37.5109091 305.1,37.5109091 C306.2,37.5109091 307.1,37.3185455 307.7,37.03 C308.3,36.6452727 308.6,36.0681818 308.6,35.2025455 C308.6,34.5292727 308.2,34.0483636 307.4,33.6636364 C306.6,33.2789091 305.3,32.798 303.4,32.2209091 C302.6,32.0285455 301.7,31.74 300.6,31.3552727 C298.5,30.682 296.9,29.7201818 295.7,28.4698182 C294.5,27.2194545 293.9,25.392 293.9,22.9874545 C293.9,20.9676364 294.4,19.2363636 295.4,17.6012727 C296.4,16.0623636 297.9,14.7158182 299.9,13.8501818 C301.9,12.9845455 304.3,12.4074545 307.2,12.4074545 C309.1,12.4074545 310.8,12.5998182 312.3,12.8883636 C313.8,13.1769091 315.2,13.6578182 316.7,14.4272727 L316.7,23.0836364 C315.5,22.0256364 314,21.16 312.2,20.3905455 C310.4,19.6210909 308.8,19.2363636 307.4,19.2363636 C306.3,19.2363636 305.4,19.4287273 304.7,19.8134545 C304,20.1981818 303.6,20.8714545 303.6,21.7370909 C303.6,22.6027273 304,23.1798182 304.7,23.5645455 C305.5,23.9492727 306.7,24.4301818 308.5,24.9110909 C308.7,24.9110909 309,25.0072727 309.5,25.1034545 C312.5,25.9690909 314.8,26.9309091 316.2,28.2774545 C317.7,29.5278182 318.4,31.4514545 318.4,33.9521818 C318.4,35.972 317.9,37.7994545 316.9,39.3383636 C315.9,40.8772727 314.5,42.1276364 312.7,42.9932727 C310.9,43.8589091 308.9,44.3398182 306.6,44.3398182 C304.2,44.436 301.9,44.3398182 300,44.0512727 Z" id="Shape" fill-opacity="0.37"></path>
                <polygon id="Shape" fill-opacity="0.37" points="329.3 43.7627273 329.3 20.102 321.4 20.102 321.4 13.2730909 347 13.2730909 347 20.102 338.9 20.102 338.9 43.7627273"></polygon>
            </g>
            <path d="M103.063979,50.7026135 L103.163814,49.9418957 C103.263648,48.7057292 101.865965,47.9450115 100.867621,48.7057292 L100.867621,48.7057292 C99.8692756,49.3713573 98.8709308,50.0369854 97.8725859,50.6075237 C96.874241,51.1780621 95.7760617,51.7486004 94.7777168,52.2240491 C93.779372,52.6994977 92.7810271,53.0798566 91.7826822,53.4602155 C90.8841719,53.7454846 89.9856615,54.0307538 89.1869856,54.2209333 C88.3883097,54.4111127 87.7893028,54.4111127 87.1902959,54.4111127 C86.39162,54.316023 85.6927786,54.2209333 84.9939372,53.8405744 C84.2950958,53.5553052 83.8957578,53.0798566 83.3965854,52.5093182 C82.9972474,51.9387799 82.5979095,51.1780621 82.498075,50.3222546 C82.298406,49.466447 82.298406,48.3253703 82.3982405,47.1842937 C82.3982405,46.708845 82.498075,46.1383067 82.5979095,45.5677683 C82.5979095,44.99723 82.697744,44.3316019 82.7975785,43.7610636 C82.7975785,43.1905252 82.9972474,42.5248972 82.9972474,41.8592691 C82.9972474,41.2887307 83.1969164,40.6231027 83.1969164,39.9574746 C83.3965854,38.5311287 83.5962544,37.1998726 83.7959233,35.7735267 C84.3949302,35.1078986 85.1936061,34.3471808 85.992282,33.4913733 C86.7909579,32.6355658 87.5896338,31.7797583 88.3883097,30.9239508 L102.464972,31.874848 C103.063979,31.874848 103.563152,31.6846686 104.062324,31.2092199 C104.561497,30.7337713 104.861,30.163233 104.960834,29.2123357 C105.060669,28.5467077 104.960834,27.9761693 104.761165,27.5007207 C104.561497,27.0252721 104.261993,26.8350926 103.762821,26.7400029 C103.363483,26.6449132 102.86431,26.6449132 102.265303,26.5498234 C101.666296,26.5498234 100.967455,26.359644 100.268614,26.359644 C99.5697722,26.2645543 98.7710963,26.2645543 97.9724204,26.0743748 C97.1737445,25.9792851 96.4749031,25.8841954 95.7760617,25.7891056 C95.1770548,25.7891056 94.4782134,25.5989262 93.9790409,25.5989262 C93.4798685,25.5989262 93.1803651,25.5038365 92.8808616,25.5038365 C93.8792065,24.2676701 94.7777168,22.9364139 95.6762272,21.7002475 C96.5747376,20.4640811 97.3734135,19.1328249 98.0722549,17.8966585 C98.7710963,16.6604921 99.3701032,15.4243257 99.7694412,14.1881593 C100.268614,12.9519928 100.468283,11.8109161 100.568117,10.6698395 C100.667952,9.33858331 100.568117,8.00732716 100.368448,6.77116075 C100.068945,5.53499433 99.7694412,4.39391763 99.2702687,3.44302039 C98.7710963,2.49212314 98.0722549,1.73140535 97.273579,1.06577728 C96.6745721,0.590328654 95.9757307,0.305059481 95.1770548,0.114880032 C93.2801995,-0.265478866 91.3833443,0.305059481 89.5863235,1.73140535 C87.8891373,2.87248204 86.4914545,4.58409708 84.9939372,6.77116075 C83.4964199,8.95822441 82.1985715,11.525647 81.0005577,14.3783387 C79.8025439,17.2310304 78.7043645,20.1788119 77.8058541,23.3167728 C77.6061852,23.3167728 77.1070127,23.3167728 76.4081713,23.3167728 C75.8091644,23.3167728 75.110323,23.2216831 74.2118126,23.1265934 C73.3133023,23.0315036 72.5146264,22.9364139 71.616116,22.9364139 C70.7176056,22.9364139 69.9189297,22.9364139 69.1202538,22.9364139 C68.3215779,22.9364139 67.722571,23.1265934 67.2233986,23.3167728 C66.7242262,23.5069523 66.4247227,23.8873112 66.4247227,24.3627598 C66.4247227,24.5529392 66.4247227,24.8382084 66.4247227,25.1234776 C66.4247227,25.4087467 66.4247227,25.6940159 66.6243917,25.9792851 C66.7242262,26.2645543 66.9238951,26.5498234 67.2233986,26.7400029 C67.522902,26.9301823 67.92224,27.1203618 68.5212469,27.2154515 C69.8190952,27.405631 70.8174401,27.5958104 71.5162815,27.7859899 C72.2151229,27.9761693 72.7142953,28.071259 73.2134678,28.1663488 C73.6128057,28.2614385 74.1119782,28.3565282 74.4114816,28.5467077 C74.8108196,28.6417974 75.4098265,28.8319768 76.1086679,28.9270666 C75.7093299,30.4485021 75.509661,32.0650275 75.2101575,33.5864631 C74.910654,35.1078986 74.7109851,36.6293342 74.7109851,38.0556801 C74.5113161,40.7181924 74.5113161,43.285615 74.5113161,45.6628581 L74.3116471,45.3775889 C73.3133023,46.2333964 72.0154539,46.9941142 70.6177711,47.9450115 C69.1202538,48.800819 67.6227365,49.5615368 66.0253848,50.3222546 C64.428033,51.0829724 62.8306812,51.6535107 61.1334949,52.0338696 C59.4363087,52.4142285 57.9387914,52.604408 56.4412741,52.604408 C55.9421016,52.604408 55.5427637,52.5093182 55.1434257,52.4142285 C54.7440878,52.3191388 54.3447498,52.0338696 54.0452464,51.8436902 C53.6459084,51.558421 53.346405,51.2731518 53.0469015,50.7977032 C52.7473981,50.3222546 52.3480601,49.7517162 52.0485567,49.0860881 C54.2449154,48.6106395 56.2416051,48.0401012 58.1384603,47.1842937 C60.0353156,46.3284861 61.6326674,45.2824992 63.1301846,44.1414225 C64.5278675,42.9052561 65.7258813,41.6690896 66.5245572,40.3378335 C67.3232331,39.0065773 67.8224055,37.5802315 68.0220745,36.0587959 C68.121909,34.7275397 67.92224,33.4913733 67.6227365,32.4453864 C67.2233986,31.3043097 66.6243917,30.4485021 65.8257158,29.5926946 C65.0270399,28.7368871 64.028695,28.071259 62.9305157,27.5958104 C61.8323363,27.1203618 60.534488,26.7400029 59.1368052,26.7400029 C57.4396189,26.6449132 55.9421016,26.7400029 54.5444188,27.3105412 C53.146736,27.8810796 51.8488877,28.4516179 50.6508738,29.3074255 C49.45286,30.163233 48.3546807,31.2092199 47.4561703,32.4453864 C46.4578254,33.6815528 45.758984,34.9177192 45.0601426,36.2489753 C44.4611357,37.5802315 43.8621288,39.0065773 43.5626253,40.4329232 C43.1632874,41.8592691 42.9636184,43.1905252 42.8637839,44.5217814 C42.7639494,45.5677683 42.8637839,46.6137553 42.8637839,47.5646526 C42.5642805,47.754832 42.3646115,48.0401012 42.1649425,48.2302806 C40.7672597,49.6566265 39.4694114,50.7977032 38.371232,51.6535107 C37.2730527,52.5093182 36.2747078,53.270036 35.3761974,53.7454846 C34.4776871,54.316023 33.6790112,54.6963819 32.8803353,54.9816511 C33.7788456,51.3682415 34.677356,47.9450115 35.4760319,44.8070505 C35.7755354,43.4757944 36.1748733,42.1445383 36.3745423,40.7181924 C36.6740458,39.3869362 36.9735492,38.0556801 37.2730527,36.8195137 C37.4727216,35.5833473 37.7722251,34.4422706 37.9718941,33.4913733 C38.171563,32.5404761 38.2713975,31.6846686 38.2713975,31.1141302 C38.371232,30.3534124 38.2713975,29.7828741 38.171563,29.4025152 C38.0717286,29.0221563 37.8720596,28.6417974 37.6723906,28.3565282 C37.4727216,28.071259 37.1732182,27.8810796 36.8737147,27.8810796 C36.5742113,27.7859899 36.2747078,27.6909001 35.8753699,27.6909001 C35.5758664,27.5958104 35.2763629,27.6909001 34.9768595,27.6909001 C34.677356,27.6909001 34.3778526,27.6909001 34.0783491,27.6909001 C33.7788456,27.5958104 33.4793422,27.6909001 33.1798387,27.5958104 C32.8803353,27.5007207 32.5808318,27.405631 32.2813284,27.3105412 C31.9818249,27.2154515 31.7821559,26.9301823 31.5824869,26.7400029 C31.382818,26.5498234 31.2829835,26.1694645 30.98348,25.8841954 C30.7838111,25.5989262 30.5841421,25.313657 30.2846386,25.1234776 C29.9851352,24.648029 29.5857972,24.5529392 28.9867903,24.4578495 C27.289604,24.3627598 25.6922522,24.5529392 23.995066,25.1234776 C22.2978797,25.6940159 20.7005279,26.5498234 19.1031761,27.5007207 C17.5058244,28.5467077 16.1081416,29.8779638 14.8102932,31.3043097 C13.4126104,32.7306555 12.3144311,34.3471808 11.2162517,35.9637062 C10.2179069,37.5802315 9.31939648,39.3869362 8.72038956,41.193641 C8.12138264,43.0003458 7.62221021,44.8070505 7.52237573,46.5186656 C7.32270675,48.0401012 7.52237573,49.466447 8.02154816,50.7026135 C8.52072059,51.9387799 9.01989302,52.9847668 9.81856891,53.9356641 C10.6172448,54.7914716 11.5157552,55.5521894 12.6139345,56.1227278 C13.6122794,56.6932661 14.8102932,56.9785353 15.9084726,57.073625 C17.2063209,57.1687147 18.7038382,56.9785353 20.2013555,56.3129072 C21.6988728,55.7423689 23.0965556,54.8865613 24.5940729,53.9356641 L23.2962246,57.073625 C21.3993693,58.3097914 19.6023486,59.6410476 17.8053278,61.0673934 C15.9084726,62.4937393 14.2112863,63.8249954 12.5141,65.346431 C10.8169138,66.7727769 9.21956199,68.2942125 7.82187919,69.7205584 C6.42419638,71.1469042 5.02651357,72.6683398 3.82849973,73.999596 C2.73032038,75.4259418 1.83181,76.757198 1.1329686,77.9933644 C0.434127192,79.2295308 0.134623733,80.3706075 0.0347892464,81.5116842 C-0.06504524,83.0331198 0.0347892464,84.2692862 0.533961678,85.1250937 C1.03313411,86.075991 1.63214103,86.8367088 2.43081692,87.4072471 C3.22949281,87.8826957 4.0281687,88.2630546 5.02651357,88.5483238 C6.02485843,88.833593 6.92336881,88.9286827 7.7220447,88.9286827 C9.81856891,89.1188622 11.7154242,88.9286827 13.5124449,88.3581444 C15.3094657,87.787606 16.9068174,87.0268882 18.5041692,85.7907218 C20.0016865,84.6496451 21.3993693,83.318389 22.5973832,81.7018636 C23.8952315,80.0853383 24.9934108,78.1835438 25.9917557,76.2817493 C26.9901006,74.2848651 27.9884454,72.0978015 28.7871213,69.8156481 C29.5857972,67.5334947 30.3844731,65.0611619 30.98348,62.6839187 C33.4793422,61.4477523 35.8753699,60.2115859 37.9718941,58.8803298 C38.8704045,58.3097914 39.8687493,57.7392531 40.8670942,57.073625 C41.865439,56.4079969 42.7639494,55.7423689 43.6624598,55.0767408 C44.0617977,54.6963819 44.5609702,54.4111127 44.8604736,54.0307538 C45.0601426,54.316023 45.1599771,54.6012922 45.4594806,54.7914716 C46.4578254,56.2178175 47.8555082,57.3588942 49.5526945,58.3097914 C51.2498808,59.2606887 53.146736,59.7361373 55.5427637,59.9263167 C57.040281,60.0214065 58.4379638,59.9263167 59.9354811,59.7361373 C61.3331639,59.5459578 62.7308467,59.1655989 64.1285295,58.78524 C65.5262123,58.3097914 66.8240606,57.8343428 68.121909,57.2638045 C69.4197573,56.6932661 70.6177711,56.027638 71.616116,55.4570997 C73.0137988,54.6963819 74.4114816,53.7454846 75.7093299,52.7945874 C75.9089989,53.6503949 76.2085024,54.4111127 76.5080058,55.0767408 C77.3066817,57.1687147 78.4048611,58.78524 79.7027094,59.9263167 C81.0005577,61.1624832 82.697744,61.7330215 84.4947647,61.8281112 C85.3932751,61.923201 86.39162,61.8281112 87.5896338,61.5428421 C88.6878132,61.2575729 89.9856615,60.877214 91.4831788,60.3066756 C92.9806961,59.7361373 94.6778823,59.0705092 96.5747376,58.2147017 C97.1737445,58.0245222 97.8725859,57.6441633 98.4715928,57.3588942 C100.867621,56.4079969 102.86431,53.7454846 103.063979,50.7026135 Z M20.101521,69.6254686 C19.7021831,70.7665453 19.1031761,72.0027117 18.5041692,73.1437884 C17.9051623,74.3799549 17.2063209,75.5210316 16.5074795,76.6621082 C15.8086381,77.8031849 15.0099622,78.7540822 14.2112863,79.7049794 C13.4126104,80.560787 12.5141,81.226415 11.5157552,81.7969534 C10.5174103,82.272402 9.61889994,82.5576712 8.52072059,82.4625814 C7.52237573,82.4625814 7.12303778,81.8920431 7.12303778,81.0362356 C7.12303778,80.4656972 7.42254124,79.8951589 7.82187919,79.0393514 C8.22121713,78.1835438 8.82022405,77.422826 9.51906545,76.5670185 C10.2179069,75.6161213 11.0165827,74.7603138 11.9150931,73.8094165 C12.8136035,72.8585193 13.8119484,71.907622 14.8102932,71.0518145 C15.8086381,70.1009173 16.9068174,69.3401995 17.9051623,68.5794817 C19.0033417,67.8187639 20.0016865,67.1531358 20.9001969,66.6776872 C20.9001969,67.438405 20.500859,68.4843919 20.101521,69.6254686 Z M26.3910937,41.2887307 C26.2912592,42.0494485 25.8919212,42.9052561 25.5924178,44.0463327 C25.1930798,45.0923197 24.6939074,46.2333964 23.995066,47.1842937 C23.2962246,48.1351909 22.6972177,49.0860881 21.8985418,49.7517162 C21.0998659,50.4173443 20.30119,50.7977032 19.3028451,50.7026135 C18.7038382,50.7026135 18.3045003,50.512434 18.0049968,50.2271648 C17.6056589,49.9418957 17.4059899,49.5615368 17.2063209,49.0860881 C17.0066519,48.6106395 16.9068174,48.1351909 16.806983,47.5646526 C16.806983,46.9941142 16.7071485,46.4235759 16.806983,45.8530375 C16.9068174,44.8070505 17.1064864,43.7610636 17.5058244,42.6199869 C17.9051623,41.4789102 18.4043347,40.3378335 19.0033417,39.2918465 C19.6023486,38.1507698 20.30119,37.1047829 21.0998659,36.0587959 C21.8985418,35.0128089 22.7970521,34.1570014 23.595728,33.3962836 C24.4942384,32.6355658 25.3927488,32.0650275 26.4909281,31.6846686 C27.489273,31.2092199 28.4876179,31.1141302 29.4859627,31.2092199 L26.3910937,41.2887307 Z M51.7490532,43.285615 C51.7490532,42.7150766 51.9487222,42.1445383 51.9487222,41.4789102 C52.0485567,40.7181924 52.2482256,40.0525643 52.4478946,39.2918465 C52.6475636,38.5311287 52.947067,37.7704109 53.346405,37.0096931 C53.7457429,36.2489753 54.1450809,35.678437 54.7440878,35.1078986 C55.3430947,34.5373603 55.9421016,34.0619117 56.7407775,33.7766425 C57.5394534,33.3962836 58.4379638,33.3011939 59.4363087,33.3962836 C60.0353156,33.3962836 60.534488,33.7766425 60.8339915,34.5373603 C61.2333294,35.2980781 61.3331639,36.1538856 61.2333294,37.1047829 C61.1334949,37.8655007 60.8339915,38.6262185 60.1351501,39.2918465 C59.4363087,40.0525643 58.6376328,40.7181924 57.7391224,41.2887307 C56.840612,41.8592691 55.8422671,42.4298074 54.7440878,42.7150766 C53.546074,43.1905252 52.5477291,43.3807047 51.7490532,43.285615 Z M84.4947647,24.2676701 C85.0937717,22.3658756 85.6927786,20.5591708 86.39162,18.5622866 C87.0904614,16.5654024 87.7893028,14.8537873 88.4881442,13.1421723 C89.1869856,11.525647 89.885827,10.1943908 90.6845029,9.24349358 C91.3833443,8.19750661 92.1820202,7.72205799 92.6811926,7.72205799 C93.1803651,7.72205799 93.4798685,7.91223744 93.779372,8.00732716 C94.0788754,8.19750661 94.1787099,8.38768606 94.2785444,8.67295524 C94.3783789,8.95822441 94.4782134,9.24349358 94.4782134,9.62385248 C94.4782134,10.0042114 94.4782134,10.2894806 94.4782134,10.47966 C94.3783789,11.2403778 94.1787099,12.0961853 93.6795375,13.237262 C93.1803651,14.3783387 92.5813581,15.6145051 91.7826822,16.8506715 C90.9840064,18.1819277 90.1853305,19.4180941 89.2868201,20.7493502 C88.3883097,22.0806064 87.4897993,23.3167728 86.6911234,24.4578495 C86.2917855,24.3627598 85.8924475,24.3627598 85.5929441,24.2676701 C85.2934406,24.4578495 84.8941027,24.3627598 84.4947647,24.2676701 Z" id="Shape" fill="#FF8686"></path>
        </g>
    </g>
</svg>